<?xml version="1.0" encoding="UTF-8" standalone="no"?>
<svg
   xmlns:ooo="http://xml.openoffice.org/svg/export"
   xmlns:dc="http://purl.org/dc/elements/1.1/"
   xmlns:cc="http://creativecommons.org/ns#"
   xmlns:rdf="http://www.w3.org/1999/02/22-rdf-syntax-ns#"
   xmlns:svg="http://www.w3.org/2000/svg"
   xmlns="http://www.w3.org/2000/svg"
   xmlns:sodipodi="http://sodipodi.sourceforge.net/DTD/sodipodi-0.dtd"
   xmlns:inkscape="http://www.inkscape.org/namespaces/inkscape"
   version="1.2"
   width="228.54137"
   height="103.12974"
   viewBox="0 0 6449.9453 2910.5504"
   preserveAspectRatio="xMidYMid"
   clip-path="url(#presentation_clip_path)"
   xml:space="preserve"
   id="svg3457"
   inkscape:version="0.48.4 r9939"
   sodipodi:docname="vector-subtraction.svg"
   style="fill-rule:evenodd;stroke-width:28.22200012;stroke-linejoin:round"><metadata
     id="metadata3571"><rdf:RDF><cc:Work
         rdf:about=""><dc:format>image/svg+xml</dc:format><dc:type
           rdf:resource="http://purl.org/dc/dcmitype/StillImage" /><dc:title></dc:title></cc:Work></rdf:RDF></metadata><sodipodi:namedview
     pagecolor="#ffffff"
     bordercolor="#666666"
     borderopacity="1"
     objecttolerance="10"
     gridtolerance="10"
     guidetolerance="10"
     inkscape:pageopacity="0"
     inkscape:pageshadow="2"
     inkscape:window-width="1317"
     inkscape:window-height="744"
     id="namedview3569"
     showgrid="false"
     inkscape:zoom="0.56729519"
     inkscape:cx="-37.834655"
     inkscape:cy="-939.45952"
     inkscape:window-x="49"
     inkscape:window-y="24"
     inkscape:window-maximized="1"
     inkscape:current-layer="svg3457"
     fit-margin-top="5"
     fit-margin-left="5"
     fit-margin-right="10"
     fit-margin-bottom="5" /><defs
     class="ClipPathGroup"
     id="defs3459"><clipPath
       id="presentation_clip_path"
       clipPathUnits="userSpaceOnUse"><rect
         x="0"
         y="0"
         width="21000"
         height="29700"
         id="rect3462" /></clipPath></defs><defs
     class="TextShapeIndex"
     id="defs3464"><g
       ooo:slide="id1"
       ooo:id-list="id3 id4 id5 id6 id7 id8"
       id="g3466" /></defs><defs
     class="EmbeddedBulletChars"
     id="defs3468"><g
       id="bullet-char-template(57356)"
       transform="scale(4.8828125e-4,-4.8828125e-4)"><path
         d="M 580,1141 1163,571 580,0 -4,571 580,1141 z"
         id="path3471"
         inkscape:connector-curvature="0" /></g><g
       id="bullet-char-template(57354)"
       transform="scale(4.8828125e-4,-4.8828125e-4)"><path
         d="m 8,1128 1129,0 L 1137,0 8,0 8,1128 z"
         id="path3474"
         inkscape:connector-curvature="0" /></g><g
       id="bullet-char-template(10146)"
       transform="scale(4.8828125e-4,-4.8828125e-4)"><path
         d="M 174,0 602,739 174,1481 1456,739 174,0 z m 1184,739 -1049,607 350,-607 699,0 z"
         id="path3477"
         inkscape:connector-curvature="0" /></g><g
       id="bullet-char-template(10132)"
       transform="scale(4.8828125e-4,-4.8828125e-4)"><path
         d="M 2015,739 1276,0 717,0 l 543,543 -1086,0 0,393 1086,0 -543,545 557,0 741,-742 z"
         id="path3480"
         inkscape:connector-curvature="0" /></g><g
       id="bullet-char-template(10007)"
       transform="scale(4.8828125e-4,-4.8828125e-4)"><path
         d="m 0,-2 c -7,16 -16,29 -25,39 l 381,530 c -94,256 -141,385 -141,387 0,25 13,38 40,38 9,0 21,-2 34,-5 21,4 42,12 65,25 l 27,-13 111,-251 280,301 64,-25 24,25 c 21,-10 41,-24 62,-43 C 886,937 835,863 770,784 769,783 710,716 594,584 L 774,223 c 0,-27 -21,-55 -63,-84 l 16,-20 C 717,90 699,76 672,76 641,76 570,178 457,381 L 164,-76 c -22,-34 -53,-51 -92,-51 -42,0 -63,17 -64,51 -7,9 -10,24 -10,44 0,9 1,19 2,30 z"
         id="path3483"
         inkscape:connector-curvature="0" /></g><g
       id="bullet-char-template(10004)"
       transform="scale(4.8828125e-4,-4.8828125e-4)"><path
         d="M 285,-33 C 182,-33 111,30 74,156 52,228 41,333 41,471 c 0,78 14,145 41,201 34,71 87,106 158,106 53,0 88,-31 106,-94 l 23,-176 c 8,-64 28,-97 59,-98 l 735,706 c 11,11 33,17 66,17 42,0 63,-15 63,-46 l 0,-122 c 0,-36 -10,-64 -30,-84 L 442,47 C 390,-6 338,-33 285,-33 z"
         id="path3486"
         inkscape:connector-curvature="0" /></g><g
       id="bullet-char-template(9679)"
       transform="scale(4.8828125e-4,-4.8828125e-4)"><path
         d="M 813,0 C 632,0 489,54 383,161 276,268 223,411 223,592 c 0,181 53,324 160,431 106,107 249,161 430,161 179,0 323,-54 432,-161 108,-107 162,-251 162,-431 0,-180 -54,-324 -162,-431 C 1136,54 992,0 813,0 z"
         id="path3489"
         inkscape:connector-curvature="0" /></g><g
       id="bullet-char-template(8226)"
       transform="scale(4.8828125e-4,-4.8828125e-4)"><path
         d="m 346,457 c -73,0 -137,26 -191,78 -54,51 -81,114 -81,188 0,73 27,136 81,188 54,52 118,78 191,78 73,0 134,-26 185,-79 51,-51 77,-114 77,-187 0,-75 -25,-137 -76,-188 -50,-52 -112,-78 -186,-78 z"
         id="path3492"
         inkscape:connector-curvature="0" /></g><g
       id="bullet-char-template(8211)"
       transform="scale(4.8828125e-4,-4.8828125e-4)"><path
         d="m -4,459 1139,0 0,147 -1139,0 0,-147 z"
         id="path3495"
         inkscape:connector-curvature="0" /></g></defs><defs
     class="TextEmbeddedBitmaps"
     id="defs3497" /><g
     id="g3499"
     transform="translate(-3808.889,-7437.7619)"><g
       id="id2"
       class="Master_Slide"><g
         id="bg-id2"
         class="Background" /><g
         id="bo-id2"
         class="BackgroundObjects" /></g></g><g
     class="SlideGroup"
     id="g3504"
     transform="translate(-3808.889,-7437.7619)"><g
       id="g3506"><g
         id="id1"
         class="Slide"
         clip-path="url(#presentation_clip_path)"><g
           class="Page"
           id="g3509"><g
             class="com.sun.star.drawing.LineShape"
             id="g3511"><g
               id="id3"><path
                 d="M 4000,10100 7145,7943"
                 id="path3514"
                 inkscape:connector-curvature="0"
                 style="fill:none;stroke:#000000;stroke-width:100" /><path
                 d="m 7500,7700 -456,131 170,247 286,-378 z"
                 id="path3516"
                 inkscape:connector-curvature="0"
                 style="fill:#000000;stroke:none" /></g></g><g
             class="com.sun.star.drawing.LineShape"
             id="g3518"><g
               id="id4"><path
                 d="M 4000,10100 8979,9086"
                 id="path3521"
                 inkscape:connector-curvature="0"
                 style="fill:none;stroke:#000000;stroke-width:100" /><path
                 d="m 9400,9000 -471,-57 60,294 411,-237 z"
                 id="path3523"
                 inkscape:connector-curvature="0"
                 style="fill:#000000;stroke:none" /></g></g><g
             class="com.sun.star.drawing.LineShape"
             id="g3525"><g
               id="id5"><path
                 d="M 9400,9000 7855,7943"
                 id="path3528"
                 inkscape:connector-curvature="0"
                 style="fill:none;stroke:#000000;stroke-width:100" /><path
                 d="m 7500,7700 287,378 169,-248 -456,-130 z"
                 id="path3530"
                 inkscape:connector-curvature="0"
                 style="fill:#000000;stroke:none" /></g></g><g
             class="com.sun.star.drawing.TextShape"
             id="g3532"><g
               id="id6"><text
                 class="TextShape"
                 id="text3535"><tspan
                   class="TextParagraph"
                   font-size="635px"
                   font-weight="700"
                   id="tspan3537"
                   style="font-size:635px;font-weight:700;font-family:'Arial, sans-serif'"><tspan
                     class="TextPosition"
                     x="5150"
                     y="8501"
                     id="tspan3539"><tspan
                       id="tspan3541"
                       style="fill:#000000;stroke:none">a</tspan></tspan></tspan></text>
</g></g><g
             class="com.sun.star.drawing.TextShape"
             id="g3543"><g
               id="id7"><text
                 class="TextShape"
                 id="text3546"><tspan
                   class="TextParagraph"
                   font-size="635px"
                   font-weight="700"
                   id="tspan3548"
                   style="font-size:635px;font-weight:700;font-family:'Arial, sans-serif'"><tspan
                     class="TextPosition"
                     x="7250"
                     y="10201"
                     id="tspan3550"><tspan
                       id="tspan3552"
                       style="fill:#000000;stroke:none">b</tspan></tspan></tspan></text>
</g></g><g
             class="com.sun.star.drawing.TextShape"
             id="g3554"><g
               id="id8"><text
                 class="TextShape"
                 id="text3557"><tspan
                   class="TextParagraph"
                   font-size="635px"
                   font-weight="400"
                   id="tspan3559"
                   style="font-size:635px;font-weight:400;font-family:'Arial, sans-serif'"><tspan
                     class="TextPosition"
                     x="8697"
                     y="8039"
                     id="tspan3561"><tspan
                       font-weight="700"
                       id="tspan3563"
                       style="font-weight:700;fill:#000000;stroke:none">a</tspan><tspan
                       id="tspan3565"
                       style="fill:#000000;stroke:none"> - </tspan><tspan
                       font-weight="700"
                       id="tspan3567"
                       style="font-weight:700;fill:#000000;stroke:none">b</tspan></tspan></tspan></text>
</g></g></g></g></g></g></svg>